# MagicaVoxel @ Ephtracy

# group
g socle_door

# material
mtllib socle_door.mtl
usemtl palette

# normals
vn -1 0 0
vn 1 0 0
vn 0 0 1
vn 0 0 -1
vn 0 -1 0
vn 0 1 0

# texcoords
vt 0.919922 0.5
vt 0.978516 0.5

# verts
v -9 0 10
v -9 0 -10
v -9 1 10
v -9 1 -10
v -8 1 9
v -8 1 -9
v -8 2 9
v -8 2 -9
v -7 1 10
v -7 1 9
v -7 1 -9
v -7 1 -10
v -7 2 10
v -7 2 9
v -7 2 -9
v -7 2 -10
v 2 1 10
v 2 1 -10
v 2 2 10
v 2 2 -10
v -2 1 10
v -2 1 -10
v -2 2 10
v -2 2 -10
v 7 1 10
v 7 1 9
v 7 1 -9
v 7 1 -10
v 7 2 10
v 7 2 9
v 7 2 -9
v 7 2 -10
v 8 1 9
v 8 1 -9
v 8 2 9
v 8 2 -9
v 9 0 10
v 9 0 -10
v 9 1 10
v 9 1 -10
v -9 0 10
v -9 1 10
v -7 1 10
v -7 2 10
v -2 1 10
v -2 2 10
v -1 0 10
v -1 1 10
v 1 0 10
v 1 1 10
v 2 1 10
v 2 2 10
v 7 1 10
v 7 2 10
v 9 0 10
v 9 1 10
v -8 1 9
v -8 2 9
v -7 1 9
v -7 2 9
v 7 1 9
v 7 2 9
v 8 1 9
v 8 2 9
v -8 1 -9
v -8 2 -9
v -7 1 -9
v -7 2 -9
v 7 1 -9
v 7 2 -9
v 8 1 -9
v 8 2 -9
v -9 0 -10
v -9 1 -10
v -7 1 -10
v -7 2 -10
v -2 1 -10
v -2 2 -10
v -1 0 -10
v -1 1 -10
v 1 0 -10
v 1 1 -10
v 2 1 -10
v 2 2 -10
v 7 1 -10
v 7 2 -10
v 9 0 -10
v 9 1 -10
v -9 0 10
v -1 0 10
v 1 0 10
v 9 0 10
v -9 0 -10
v -1 0 -10
v 1 0 -10
v 9 0 -10
v -9 1 10
v -7 1 10
v -2 1 10
v -1 1 10
v 1 1 10
v 2 1 10
v 7 1 10
v 9 1 10
v -8 1 9
v -7 1 9
v 7 1 9
v 8 1 9
v -8 1 -9
v -7 1 -9
v 7 1 -9
v 8 1 -9
v -9 1 -10
v -7 1 -10
v -2 1 -10
v -1 1 -10
v 1 1 -10
v 2 1 -10
v 7 1 -10
v 9 1 -10
v -7 2 10
v -2 2 10
v 2 2 10
v 7 2 10
v -8 2 9
v -7 2 9
v -6 2 9
v -3 2 9
v 3 2 9
v 6 2 9
v 7 2 9
v 8 2 9
v -7 2 8
v -6 2 8
v 6 2 8
v 7 2 8
v -7 2 -8
v -6 2 -8
v 6 2 -8
v 7 2 -8
v -8 2 -9
v -7 2 -9
v -6 2 -9
v -3 2 -9
v 3 2 -9
v 6 2 -9
v 7 2 -9
v 8 2 -9
v -7 2 -10
v -2 2 -10
v 2 2 -10
v 7 2 -10

# faces
f 3/2/1 2/2/1 1/2/1
f 4/2/1 2/2/1 3/2/1
f 7/2/1 6/2/1 5/2/1
f 8/2/1 6/2/1 7/2/1
f 13/2/1 10/2/1 9/2/1
f 14/2/1 10/2/1 13/2/1
f 15/2/1 12/2/1 11/2/1
f 16/2/1 12/2/1 15/2/1
f 19/2/1 18/2/1 17/2/1
f 20/2/1 18/2/1 19/2/1
f 21/2/2 22/2/2 23/2/2
f 23/2/2 22/2/2 24/2/2
f 25/2/2 26/2/2 29/2/2
f 29/2/2 26/2/2 30/2/2
f 27/2/2 28/2/2 31/2/2
f 31/2/2 28/2/2 32/2/2
f 33/2/2 34/2/2 35/2/2
f 35/2/2 34/2/2 36/2/2
f 37/2/2 38/2/2 39/2/2
f 39/2/2 38/2/2 40/2/2
f 43/2/3 42/2/3 41/2/3
f 45/2/3 43/2/3 41/2/3
f 45/2/3 44/2/3 43/2/3
f 46/2/3 44/2/3 45/2/3
f 47/2/3 45/2/3 41/2/3
f 48/2/3 45/2/3 47/2/3
f 49/1/3 48/1/3 47/1/3
f 50/1/3 48/1/3 49/1/3
f 51/2/3 50/2/3 49/2/3
f 53/2/3 51/2/3 49/2/3
f 53/2/3 52/2/3 51/2/3
f 54/2/3 52/2/3 53/2/3
f 55/2/3 53/2/3 49/2/3
f 56/2/3 53/2/3 55/2/3
f 59/2/3 58/2/3 57/2/3
f 60/2/3 58/2/3 59/2/3
f 63/2/3 62/2/3 61/2/3
f 64/2/3 62/2/3 63/2/3
f 65/2/4 66/2/4 67/2/4
f 67/2/4 66/2/4 68/2/4
f 69/2/4 70/2/4 71/2/4
f 71/2/4 70/2/4 72/2/4
f 73/2/4 74/2/4 75/2/4
f 73/2/4 75/2/4 77/2/4
f 75/2/4 76/2/4 77/2/4
f 77/2/4 76/2/4 78/2/4
f 73/2/4 77/2/4 79/2/4
f 79/2/4 77/2/4 80/2/4
f 79/1/4 80/1/4 81/1/4
f 81/1/4 80/1/4 82/1/4
f 81/2/4 82/2/4 83/2/4
f 81/2/4 83/2/4 85/2/4
f 83/2/4 84/2/4 85/2/4
f 85/2/4 84/2/4 86/2/4
f 81/2/4 85/2/4 87/2/4
f 87/2/4 85/2/4 88/2/4
f 93/2/5 90/2/5 89/2/5
f 94/1/5 91/1/5 90/1/5
f 94/2/5 90/2/5 93/2/5
f 95/2/5 92/2/5 91/2/5
f 95/1/5 91/1/5 94/1/5
f 96/2/5 92/2/5 95/2/5
f 97/2/6 98/2/6 105/2/6
f 105/2/6 98/2/6 106/2/6
f 103/2/6 104/2/6 107/2/6
f 107/2/6 104/2/6 108/2/6
f 97/2/6 105/2/6 109/2/6
f 108/2/6 104/2/6 112/2/6
f 109/2/6 110/2/6 113/2/6
f 97/2/6 109/2/6 113/2/6
f 113/2/6 110/2/6 114/2/6
f 99/2/6 100/2/6 115/2/6
f 100/1/6 101/1/6 116/1/6
f 115/2/6 100/2/6 116/2/6
f 101/2/6 102/2/6 117/2/6
f 116/1/6 101/1/6 117/1/6
f 117/2/6 102/2/6 118/2/6
f 111/2/6 112/2/6 119/2/6
f 112/2/6 104/2/6 120/2/6
f 119/2/6 112/2/6 120/2/6
f 121/2/6 122/2/6 126/2/6
f 126/2/6 122/2/6 127/2/6
f 127/2/6 122/2/6 128/2/6
f 123/2/6 124/2/6 129/2/6
f 129/2/6 124/2/6 130/2/6
f 130/2/6 124/2/6 131/2/6
f 125/2/6 126/2/6 133/2/6
f 126/2/6 127/2/6 133/2/6
f 127/1/6 128/1/6 134/1/6
f 133/2/6 127/2/6 134/2/6
f 131/2/6 132/2/6 135/2/6
f 130/2/6 131/2/6 135/2/6
f 129/1/6 130/1/6 135/1/6
f 135/2/6 132/2/6 136/2/6
f 133/1/6 134/1/6 137/1/6
f 125/2/6 133/2/6 137/2/6
f 134/1/6 128/1/6 138/1/6
f 137/1/6 134/1/6 138/1/6
f 135/1/6 136/1/6 139/1/6
f 129/1/6 135/1/6 139/1/6
f 136/2/6 132/2/6 140/2/6
f 139/1/6 136/1/6 140/1/6
f 125/2/6 137/2/6 141/2/6
f 137/2/6 138/2/6 141/2/6
f 141/2/6 138/2/6 142/2/6
f 138/1/6 128/1/6 143/1/6
f 142/2/6 138/2/6 143/2/6
f 128/2/6 122/2/6 144/2/6
f 143/1/6 128/1/6 144/1/6
f 129/1/6 139/1/6 145/1/6
f 123/2/6 129/2/6 145/2/6
f 139/2/6 140/2/6 146/2/6
f 145/1/6 139/1/6 146/1/6
f 140/2/6 132/2/6 147/2/6
f 146/2/6 140/2/6 147/2/6
f 147/2/6 132/2/6 148/2/6
f 142/2/6 143/2/6 149/2/6
f 143/2/6 144/2/6 149/2/6
f 144/2/6 122/2/6 150/2/6
f 149/2/6 144/2/6 150/2/6
f 145/2/6 146/2/6 151/2/6
f 146/2/6 147/2/6 151/2/6
f 123/2/6 145/2/6 151/2/6
f 151/2/6 147/2/6 152/2/6
